<?xml version="1.0" standalone="no"?>
<!DOCTYPE svg PUBLIC "-//W3C//DTD SVG 20010904//EN"
 "http://www.w3.org/TR/2001/REC-SVG-20010904/DTD/svg10.dtd">
<svg version="1.0" xmlns="http://www.w3.org/2000/svg"
 width="1080.000000pt" height="1080.000000pt" viewBox="0 0 1080.000000 1080.000000"
 preserveAspectRatio="xMidYMid meet">

<g transform="translate(0.000000,1080.000000) scale(0.100000,-0.100000)"
fill="#000000" stroke="none">
<path d="M4409 7439 c-14 -58 -30 -104 -38 -107 -7 -3 -29 11 -48 31 -31 34
-51 48 -40 30 3 -5 15 -30 27 -58 13 -27 36 -77 51 -109 l29 -60 0 -691 c0
-380 -3 -695 -7 -698 -3 -4 -52 37 -107 91 -583 562 -576 555 -587 597 -6 22
-9 63 -6 90 6 54 113 333 195 505 27 58 53 117 57 130 7 24 6 24 -8 5 -36 -49
-427 -708 -427 -719 0 -7 35 -46 78 -87 42 -41 199 -192 347 -335 149 -144
307 -297 353 -339 45 -43 82 -85 82 -93 0 -8 -27 -40 -59 -71 -98 -92 -566
-546 -703 -681 -78 -77 -129 -136 -134 -153 -17 -71 -18 -69 446 -532 241
-242 451 -445 467 -453 39 -21 123 -19 157 3 42 28 869 857 883 886 35 73 21
130 -45 190 -45 41 -452 433 -709 683 -68 66 -123 122 -123 126 0 7 155 161
415 411 77 75 201 194 275 266 74 72 145 139 158 150 22 18 22 19 5 43 -21 29
-375 616 -407 674 -36 65 -29 15 9 -62 19 -40 35 -75 35 -77 0 -2 11 -28 24
-57 13 -29 38 -91 56 -138 17 -47 46 -121 63 -165 36 -91 42 -187 14 -241 -18
-35 -649 -652 -678 -662 -5 -2 -9 291 -9 705 l0 708 44 91 c64 134 67 148 16
97 -39 -41 -60 -53 -60 -35 -1 20 -51 197 -58 204 -5 5 -20 -37 -33 -93z m249
-2091 c75 -73 208 -203 296 -288 336 -324 376 -364 376 -374 0 -12 -811 -826
-822 -826 -5 0 -8 365 -8 810 0 585 3 810 11 810 6 0 72 -60 147 -132z m-268
-678 c0 -434 -4 -791 -8 -794 -5 -3 -190 177 -411 398 -355 356 -402 406 -393
423 6 11 44 50 84 87 40 38 190 182 333 320 356 344 378 365 387 360 5 -3 8
-360 8 -794z"/>
</g>
</svg>
